<svg version="1.1" id="Layer_1" xmlns="http://www.w3.org/2000/svg" xmlns:xlink="http://www.w3.org/1999/xlink" x="0px" y="0px"
	 width="100%" viewBox="0 0 1024 1024" enable-background="new 0 0 1024 1024" xml:space="preserve">
<path fill="#000000" opacity="1.000000" stroke="none" 
	d="
M115.422226,455.569763 
	C120.086441,422.297119 129.031982,390.667664 141.792465,360.097015 
	C162.087372,311.475952 191.209549,268.726044 228.598434,231.759415 
	C275.036499,185.845825 329.433990,152.886856 392.062958,133.903198 
	C423.913818,124.248787 456.396729,118.179764 489.785156,117.641548 
	C491.610260,117.612129 493.427032,117.209969 495.254150,117.129959 
	C498.393677,116.992470 499.686005,115.332123 499.638367,112.304398 
	C499.601349,109.952637 499.408295,107.213882 502.840485,107.253761 
	C506.565918,107.297050 506.179596,110.296402 506.184326,112.758118 
	C506.214569,128.423660 506.249146,144.089554 506.164276,159.754700 
	C506.145447,163.235596 506.145844,166.197220 510.972443,165.819946 
	C512.801086,165.677002 514.214294,166.814240 514.120667,168.888580 
	C514.029724,170.900970 512.530334,171.995804 510.782440,171.941589 
	C506.406952,171.805878 506.100006,174.422638 506.146912,177.778015 
	C506.258759,185.775894 506.288910,193.778366 506.134094,201.774780 
	C506.075165,204.817474 506.889557,206.621933 509.948578,207.821457 
	C516.563049,210.415161 519.750305,215.911438 519.906921,222.686401 
	C520.060120,229.316864 516.961365,234.758911 510.726410,237.516556 
	C507.077759,239.130310 505.947418,241.299652 506.029877,245.138718 
	C506.269592,256.299805 506.193024,267.468994 506.127502,278.634369 
	C506.110931,281.458862 506.842438,283.199432 509.832306,284.193909 
	C514.689819,285.809631 517.942627,289.428223 519.560364,294.257874 
	C520.433350,296.864105 521.881714,297.737244 524.588684,298.027649 
	C532.693176,298.897034 540.837463,299.612854 548.788757,301.570160 
	C550.842468,302.075775 553.790405,302.171295 553.228577,305.110474 
	C552.572266,308.543396 549.627197,307.040863 547.466919,306.710266 
	C540.563721,305.653839 533.671997,304.522583 526.770569,303.454041 
	C523.070129,302.881104 520.102234,303.267059 518.382202,307.515320 
	C516.844299,311.313812 513.562073,313.925842 509.638397,315.267700 
	C506.800049,316.238403 505.691528,318.035889 505.743195,320.855865 
	C505.819427,325.015869 505.911804,329.176422 505.912567,333.336761 
	C505.921631,383.333130 505.944061,433.329590 505.859039,483.325806 
	C505.852051,487.444244 506.251465,490.306854 510.936249,492.118530 
	C514.302429,493.420288 515.794128,492.362549 517.766846,490.463531 
	C528.690979,479.947693 539.608582,469.424988 550.571960,458.950165 
	C579.244202,431.555664 607.918457,404.163239 636.664124,376.845978 
	C638.923462,374.698944 640.108337,372.882233 639.115662,369.534821 
	C638.023132,365.850800 638.089661,361.816162 640.097900,358.343445 
	C641.754456,355.478821 640.848206,353.750885 638.508667,352.068115 
	C637.437866,351.297852 636.486694,350.326996 635.605408,349.336731 
	C634.631592,348.242615 634.311157,346.958557 635.473267,345.779358 
	C636.482422,344.755371 637.632996,345.131439 638.666321,345.787079 
	C639.506165,346.320007 640.401123,346.861115 641.040100,347.599060 
	C643.557190,350.505890 646.319397,351.025024 649.910889,349.439850 
	C653.013367,348.070496 656.664734,347.863922 659.691223,349.220490 
	C663.561584,350.955231 665.734924,349.381866 668.328064,346.898315 
	C680.360962,335.374207 692.528870,323.990967 704.671570,312.581940 
	C706.202515,311.143494 707.852112,308.934601 710.108643,311.227661 
	C712.498535,313.656219 709.910767,315.112640 708.464172,316.485931 
	C696.380737,327.956909 684.282898,339.413727 672.081299,350.758575 
	C669.520996,353.139160 668.121460,355.006805 670.223328,358.726227 
	C672.500305,362.755737 672.496338,367.466888 670.294312,371.715057 
	C668.810974,374.576752 669.527588,376.595581 671.382935,378.922852 
	C674.910950,383.348297 678.215332,387.956879 681.495178,392.572876 
	C682.699158,394.267334 684.650696,396.462646 682.207703,398.223145 
	C679.607666,400.096802 678.508362,397.230804 677.295410,395.607758 
	C674.004639,391.204163 670.748535,386.772614 667.578857,382.281433 
	C665.938049,379.956604 664.332520,378.973602 661.359436,380.409882 
	C656.943665,382.543030 652.106384,382.604980 647.901611,380.080292 
	C644.312256,377.925079 642.298523,379.252319 639.772461,381.680878 
	C616.831787,403.735870 593.827637,425.725067 570.792664,447.681671 
	C554.271667,463.429260 537.685730,479.108795 521.097961,494.786011 
	C519.152893,496.624298 517.999390,498.241882 519.170959,501.258545 
	C520.368286,504.341583 522.437256,504.542297 525.036011,504.542145 
	C572.021667,504.539398 619.007324,504.573883 665.992981,504.546265 
	C674.486877,504.541260 682.981201,504.189972 691.474243,504.228149 
	C693.964844,504.239349 695.491516,503.770111 696.373413,501.216309 
	C698.112061,496.181335 701.748291,492.903351 706.724976,491.082672 
	C707.815674,490.683655 708.927917,490.363373 709.555908,489.208771 
	C711.321350,485.962952 713.200684,486.095398 714.965332,489.182373 
	C715.890381,490.800629 717.533569,491.200531 719.001282,491.931976 
	C722.230957,493.541534 725.111206,495.762543 726.327820,499.137726 
	C727.779907,503.166351 730.336243,504.172211 734.309448,504.113739 
	C747.139221,503.924866 759.973694,503.964508 772.805237,504.062317 
	C775.837219,504.085449 777.628418,503.146790 778.974731,500.249207 
	C781.972290,493.798096 787.051758,490.390320 794.454224,490.565094 
	C801.638306,490.734711 806.448486,494.265747 809.239075,500.562073 
	C810.487793,503.379730 812.329956,504.040649 815.089478,504.033508 
	C835.921143,503.979584 856.753113,503.976715 877.584656,504.043549 
	C880.394714,504.052582 882.066345,503.127655 883.469849,500.528473 
	C886.576599,494.774597 892.910583,491.769043 898.445068,492.871094 
	C904.359497,494.048767 909.220947,498.923737 910.087585,504.545898 
	C911.033264,510.680939 908.087097,516.497253 901.840942,519.647156 
	C899.132874,521.012878 898.476013,522.812927 898.318726,525.541504 
	C893.323242,612.201782 861.935608,688.387207 806.190735,754.506775 
	C756.414307,813.547058 694.281128,854.515503 620.722900,877.989075 
	C593.200439,886.771912 564.985657,892.254883 536.124878,894.461304 
	C527.965332,895.085083 519.828247,895.245972 511.671875,895.359619 
	C431.403931,896.477356 358.312744,873.407593 291.172852,830.095520 
	C269.381226,816.037781 248.984970,800.094788 230.641296,781.929565 
	C170.458252,722.332214 131.894653,651.039551 116.960732,567.332458 
	C113.442009,547.609436 111.715813,527.664795 111.550400,507.728668 
	C111.407234,490.476257 112.459801,473.128510 115.422226,455.569763 
M262.781708,629.603333 
	C258.866974,634.332092 260.255890,638.469604 263.183105,643.391357 
	C272.078918,658.348267 282.308685,672.261047 293.748138,685.330688 
	C298.088257,690.289368 302.457550,695.209595 307.666779,699.845825 
	C319.895386,687.602722 331.604675,675.781189 343.451569,664.099304 
	C345.894348,661.690552 346.561005,659.782532 344.931122,656.377319 
	C341.751953,649.735474 343.331116,643.181091 347.796356,637.674316 
	C351.626770,632.950500 360.459595,631.723206 366.816437,634.798096 
	C369.708679,636.197021 371.409882,635.909912 373.657562,633.642700 
	C410.951721,596.024109 448.329132,558.488037 485.706879,520.952393 
	C487.384155,519.268005 489.012512,518.005493 487.425537,515.080322 
	C485.937042,512.336670 485.060303,510.140350 481.096497,510.151581 
	C428.111359,510.301910 375.125610,510.272125 322.140137,510.203705 
	C319.116058,510.199799 317.346161,511.013214 315.978180,513.934387 
	C313.019836,520.251526 307.675385,523.352722 300.720428,523.262756 
	C293.927612,523.174927 288.886444,519.958984 286.207916,513.686646 
	C285.088013,511.064209 283.500763,510.329498 280.859528,510.346436 
	C267.863617,510.429779 254.866455,510.435822 241.870743,510.336914 
	C239.072937,510.315643 237.391251,511.052338 236.040558,513.787537 
	C233.001297,519.942017 227.840683,523.371765 220.827194,523.263306 
	C214.036819,523.158386 209.052704,519.894531 206.298538,513.667053 
	C205.281830,511.368134 203.989944,510.330658 201.437195,510.353027 
	C191.107513,510.443634 180.775482,510.468903 170.446655,510.336334 
	C167.145920,510.293945 166.153259,511.638275 166.104111,514.791321 
	C165.877487,529.328857 167.623459,543.707642 169.808075,558.006042 
	C174.311737,587.483093 183.406982,615.563293 196.133682,642.532593 
	C213.089294,678.463623 235.899246,710.223022 263.570953,738.614075 
	C265.953217,741.058289 267.528534,740.627136 269.690491,738.400024 
	C279.902222,727.880493 290.234741,717.478271 300.504974,707.015320 
	C301.185638,706.321838 301.706329,705.471375 302.406647,704.556519 
	C301.758850,703.645630 301.282196,702.775391 300.622925,702.077698 
	C283.400604,683.852234 267.677948,664.498474 255.718445,642.324890 
	C254.442184,639.958679 252.709671,639.106934 250.056427,639.236511 
	C243.974274,639.533447 239.442413,636.832153 236.625732,631.460266 
	C233.751785,625.979126 234.590683,620.700500 238.421173,616.094849 
	C240.113129,614.060425 240.030457,612.534241 239.153076,610.288147 
	C234.851151,599.275269 230.959885,588.117737 227.802490,576.710205 
	C223.885696,562.559082 221.312027,548.159851 219.834595,533.570435 
	C219.592453,531.179382 218.422745,527.422729 222.312164,527.071899 
	C226.499939,526.694153 225.731750,530.724609 226.156235,533.293274 
	C226.697556,536.568970 226.896530,539.899475 227.323273,543.196045 
	C230.247635,565.786133 236.610260,587.437805 245.138901,608.503052 
	C245.763611,610.046082 246.483932,610.824280 248.317932,611.026672 
	C260.054321,612.321594 264.052582,617.234436 262.781708,629.603333 
M444.736938,226.034256 
	C449.463501,225.062546 454.165283,223.940979 458.922546,223.155151 
	C465.651703,222.043564 472.382263,220.865265 479.225861,220.624069 
	C481.107697,220.557739 482.621826,221.065887 482.847961,223.157135 
	C483.061127,225.128143 481.848267,226.250732 480.058533,226.729767 
	C479.101166,226.986023 478.095490,227.090729 477.104156,227.186752 
	C456.789612,229.154526 437.046448,233.677841 417.728241,240.221008 
	C414.906189,241.176849 413.527710,242.376160 412.891815,245.547867 
	C410.827789,255.843155 400.379700,260.167999 391.833160,254.294342 
	C389.155640,252.454193 387.245758,252.652771 384.596893,253.915680 
	C361.399994,264.975189 340.626160,279.583618 321.454041,296.590637 
	C319.719116,298.129639 319.164703,299.549835 320.104767,301.795013 
	C321.937805,306.172882 321.750946,310.659271 319.602783,314.862640 
	C318.411865,317.192902 318.717072,318.768311 320.528198,320.572021 
	C329.501953,329.508850 338.379974,338.541779 347.301941,347.530731 
	C348.483154,348.720825 349.679077,350.033295 351.615448,348.994354 
	C358.887787,345.092590 365.437958,349.886963 372.310211,350.748596 
	C372.830444,350.813843 373.692413,351.616089 373.668732,352.034698 
	C373.336792,357.909912 377.173645,363.689636 374.210541,369.582397 
	C372.725739,372.535248 373.801208,374.508423 375.947357,376.575226 
	C381.468231,381.892029 386.831757,387.372040 392.275757,392.769043 
	C424.937653,425.148926 457.607239,457.521118 490.262085,489.908112 
	C491.983643,491.615601 493.422058,492.851044 496.298340,491.614227 
	C499.170990,490.378998 499.808258,488.667999 499.805786,485.885559 
	C499.756897,430.889404 499.746521,375.893158 499.820160,320.897064 
	C499.824463,317.676483 498.967712,315.657471 495.857056,314.309998 
	C492.402527,312.813538 489.876831,310.001556 488.403046,306.534058 
	C487.432739,304.251129 486.139465,303.656586 483.781006,304.112762 
	C478.883148,305.060120 473.938110,305.762665 469.015137,306.581848 
	C467.293060,306.868408 465.396118,307.050018 464.806702,305.032959 
	C464.093811,302.593170 466.081085,301.822662 467.939911,301.466553 
	C473.005707,300.496063 478.079346,299.525055 483.188202,298.839600 
	C485.433014,298.538391 486.906067,297.904816 487.533752,295.568787 
	C488.902405,290.475189 491.864227,286.592926 496.765015,284.417908 
	C498.890045,283.474762 499.655426,281.949982 499.644623,279.693970 
	C499.586426,267.528900 499.598480,255.363480 499.597504,243.198181 
	C499.597321,240.673813 498.713928,239.092514 496.231537,237.757309 
	C483.581116,230.952957 483.379425,215.344604 495.866760,208.130417 
	C498.777802,206.448654 499.749786,204.543747 499.685730,201.375061 
	C499.527557,193.545410 499.360840,185.698578 499.716675,177.882278 
	C499.938019,173.019821 497.954163,171.976410 493.561279,172.133530 
	C474.717133,172.807465 456.065430,174.977829 437.615173,178.821808 
	C383.273407,190.143478 334.606964,213.416046 291.588837,248.467712 
	C283.885162,254.744751 276.135956,261.015381 269.140350,268.900513 
	C277.231354,277.087189 285.079102,284.977509 292.855621,292.937439 
	C294.462128,294.581818 295.760040,293.605133 297.322662,292.985626 
	C300.901611,291.566711 304.889893,289.723633 308.404846,291.750458 
	C313.990082,294.971008 317.624146,293.079010 320.966064,288.626892 
	C321.259705,288.235718 321.702393,287.954041 322.084656,287.631989 
	C340.641083,271.999390 360.456238,258.293152 382.581512,248.126862 
	C384.754730,247.128326 386.602722,246.196533 386.534332,243.128128 
	C386.406128,237.377457 389.323883,233.302292 394.584717,231.043655 
	C399.902527,228.760559 404.803284,229.833069 408.891144,233.724915 
	C410.808594,235.550385 412.388092,235.514587 414.671539,234.686783 
	C424.229828,231.221756 434.038879,228.582428 444.736938,226.034256 
M731.641296,676.151001 
	C741.462097,663.917969 750.357849,651.060547 757.958923,637.320557 
	C776.918213,603.049011 788.731873,566.637756 791.143860,527.360962 
	C791.315918,524.559814 790.740540,523.109863 787.952454,522.228333 
	C783.962585,520.966797 780.987854,518.189087 779.426758,514.309937 
	C778.168518,511.183228 776.202698,510.239563 772.916748,510.281860 
	C759.591797,510.453430 746.262268,510.468201 732.937561,510.296265 
	C729.617981,510.253418 727.738953,511.314453 726.420471,514.348572 
	C724.916199,517.810547 722.231079,520.441589 718.656250,521.752197 
	C715.983704,522.732056 715.464600,524.461975 715.189148,527.051697 
	C714.415771,534.321228 713.297729,541.556458 712.201721,548.787964 
	C711.904846,550.746521 711.356934,553.244629 708.670715,552.557922 
	C706.476746,551.997070 706.837097,549.736206 707.190430,547.866638 
	C708.363892,541.657532 709.404541,535.440979 709.838318,529.113037 
	C710.087463,525.477783 709.393066,523.146545 705.442261,522.088379 
	C701.568665,521.050903 698.639160,518.240234 697.213501,514.568420 
	C695.806091,510.943970 693.570496,510.168243 689.971008,510.174927 
	C635.330322,510.276550 580.689453,510.244843 526.048584,510.258423 
	C523.462524,510.259064 521.053223,509.833313 519.572571,513.305664 
	C517.995483,517.004272 519.663513,518.758179 521.924927,520.952820 
	C555.036499,553.084656 588.106995,585.258667 621.186890,617.423279 
	C627.754883,623.809570 634.353455,630.164978 640.868530,636.604736 
	C642.921143,638.633545 644.881348,639.122131 647.524414,637.624023 
	C651.823914,635.186768 656.432129,636.500977 661.023987,636.401062 
	C667.196045,636.266663 668.206055,638.695190 669.702820,643.794678 
	C671.332947,649.349060 672.511963,654.390686 669.816040,659.635376 
	C668.611633,661.978577 668.890381,663.505066 670.745789,665.308960 
	C678.627869,672.972412 686.428528,680.720642 694.176758,688.519653 
	C696.033142,690.388184 697.720642,691.101990 700.335754,689.895508 
	C705.132568,687.682251 710.087219,687.731750 714.764099,690.298096 
	C717.158264,691.611877 718.717346,691.052551 720.352173,689.121521 
	C723.902222,684.928040 727.576172,680.839478 731.641296,676.151001 
M522.666504,709.271118 
	C531.303101,708.618835 539.856140,707.377625 548.367249,705.779419 
	C550.210815,705.433289 552.720764,704.621948 553.292358,707.501038 
	C553.868835,710.405151 551.186768,710.575745 549.378540,710.958130 
	C541.228027,712.681702 532.989746,713.934998 524.660461,714.252991 
	C521.781128,714.362915 520.142517,715.196106 519.104248,718.045776 
	C517.553955,722.301086 514.386719,725.446167 510.116669,726.880249 
	C506.935028,727.948853 506.161194,729.784119 506.194153,732.819336 
	C506.306274,743.150269 506.371460,753.486145 506.159424,763.814087 
	C506.081848,767.593079 506.814301,770.139465 510.850464,771.310425 
	C513.785156,772.161804 516.577148,774.212769 517.508423,777.021851 
	C519.667664,783.535400 523.971436,784.543701 529.800781,783.050476 
	C530.592224,782.847717 531.460266,782.953613 532.291260,782.893921 
	C555.007202,781.262268 577.076965,776.502563 598.635071,769.235046 
	C600.998291,768.438416 602.470581,767.458679 602.861023,764.520386 
	C604.480591,752.333496 616.005920,747.719849 625.731873,755.310120 
	C627.718689,756.860535 629.177124,757.218262 631.496216,756.125854 
	C653.043213,745.976440 672.648987,732.865784 690.902283,717.638672 
	C692.957642,715.924133 693.848572,714.366150 692.411926,711.718445 
	C690.223938,707.686035 690.142151,703.341736 691.934998,699.158142 
	C693.147156,696.329651 692.202026,694.485107 690.220520,692.553894 
	C682.224854,684.761230 674.277893,676.917847 666.390564,669.015747 
	C664.658203,667.280029 663.127441,666.667969 660.690063,667.769897 
	C656.875366,669.494568 652.751587,669.437378 649.071960,667.523376 
	C645.475830,665.652832 642.358398,664.047485 639.194763,668.145020 
	C638.337036,669.255920 636.783875,669.242004 635.658875,668.028687 
	C634.698486,666.992920 634.696289,665.560791 635.705017,664.918213 
	C640.465088,661.886169 639.688904,657.661255 638.791626,653.156921 
	C638.449585,651.440002 638.603394,649.354553 639.286621,647.760864 
	C640.601318,644.694153 639.424133,642.810486 637.300232,640.794495 
	C629.203491,633.109009 621.173889,625.351929 613.176331,617.562927 
	C581.422241,586.637146 549.698975,555.679626 517.920349,524.779114 
	C516.405945,523.306580 515.151306,520.655212 512.147339,522.499023 
	C509.330322,524.228149 505.803467,524.620911 505.821106,529.561768 
	C506.013428,583.388550 505.968445,637.216248 505.951813,691.043701 
	C505.950989,693.639404 506.516510,695.381165 509.391815,696.221375 
	C514.538086,697.725220 517.773071,701.412231 519.681030,706.366882 
	C520.125366,707.520691 520.132935,709.134705 522.666504,709.271118 
M250.998276,392.678375 
	C250.786133,393.807709 251.432739,394.534912 252.142883,395.279480 
	C256.636902,399.991180 257.578003,405.546234 255.324524,411.460266 
	C253.078781,417.354065 248.354614,420.239105 242.150894,420.482178 
	C239.827591,420.573242 239.002823,421.765320 238.365677,423.667236 
	C231.515091,444.116577 227.364304,465.122681 225.313751,486.565491 
	C225.095016,488.852570 225.394470,490.756134 227.956909,491.834442 
	C232.327820,493.673798 235.262466,497.038818 236.789978,501.505341 
	C237.500809,503.583893 238.660782,504.241547 240.849350,504.216461 
	C253.844269,504.067474 266.841217,504.007751 279.836761,504.068878 
	C282.875702,504.083191 284.780701,503.179932 285.985413,500.221039 
	C287.683990,496.048981 291.153534,493.693848 294.973602,491.307922 
	C299.913788,488.222382 303.564545,487.292175 308.341980,491.799011 
	C311.227203,494.520752 315.040924,496.413605 316.216248,500.419891 
	C317.300140,504.114624 319.499329,504.671051 322.877594,504.659302 
	C375.856506,504.474945 428.835846,504.355316 481.814941,504.388336 
	C485.186005,504.390442 486.310181,502.999786 487.577179,500.309113 
	C488.901794,497.495911 488.307922,495.822571 486.255005,493.790802 
	C448.006042,455.935730 409.802734,418.034485 371.636932,380.095551 
	C369.749451,378.219238 368.187347,377.505524 365.569153,378.850494 
	C361.731537,380.821869 357.483398,381.080261 353.433655,379.569122 
	C350.652679,378.531464 349.048828,379.461548 347.537689,381.592590 
	C343.973145,386.619354 340.360016,391.611908 336.739136,396.598419 
	C335.759277,397.947845 334.656403,399.643158 332.728394,398.452667 
	C330.520569,397.089417 331.620056,395.243805 332.698792,393.718140 
	C336.255615,388.687714 339.791016,383.636810 343.529480,378.742554 
	C345.217834,376.532227 345.967743,374.648590 344.342957,372.017548 
	C341.520050,367.446350 341.393738,362.520111 343.542480,357.659027 
	C344.858276,354.682434 344.526947,352.463928 342.116882,350.102448 
	C333.311035,341.474121 324.642944,332.703827 316.008179,323.903351 
	C314.381561,322.245544 312.987152,321.732391 310.781555,322.831879 
	C307.724579,324.355652 304.173645,325.138794 301.092224,323.702057 
	C296.807587,321.704254 294.731232,323.938080 292.364624,326.758942 
	C275.673218,346.654022 261.637665,368.212494 250.998276,392.678375 
M487.977081,716.354553 
	C487.381897,713.926758 485.530945,713.542053 483.396484,713.345215 
	C480.083221,713.039734 476.775299,712.617126 473.490479,712.086792 
	C471.641388,711.788269 469.583252,711.136658 470.075623,708.705627 
	C470.506165,706.579834 472.507477,706.757446 474.185059,706.990723 
	C477.150665,707.402893 480.126923,707.797241 483.053619,708.413391 
	C485.724609,708.975769 487.460724,708.443909 488.488770,705.632568 
	C489.848419,701.914490 492.332245,698.839355 495.994080,697.298889 
	C499.220154,695.941895 499.819824,693.799133 499.816223,690.645813 
	C499.754944,636.980530 499.736664,583.315125 499.888519,529.650146 
	C499.899872,525.639282 498.158844,524.123047 494.839966,522.952637 
	C491.466980,521.763123 490.335052,524.513123 488.738861,526.106262 
	C452.407928,562.368103 416.168518,598.721680 379.818207,634.964050 
	C376.363464,638.408508 373.143188,641.408691 376.043335,646.812500 
	C376.674255,647.988098 376.765015,650.072083 376.139313,651.204163 
	C371.791321,659.071045 377.335327,662.598267 382.474091,666.393494 
	C383.813507,667.382629 385.112793,668.432373 386.373108,669.520691 
	C387.679230,670.648560 389.051758,672.060974 387.627594,673.740479 
	C386.221008,675.399109 384.534302,674.306458 383.202148,673.260254 
	C379.664581,670.482239 376.146149,667.676025 372.708191,664.776611 
	C371.042755,663.372009 369.650452,662.668152 367.414337,663.958740 
	C363.346100,666.306702 358.878906,666.856262 354.429138,665.075928 
	C351.984253,664.097656 350.481659,664.859680 348.765015,666.609985 
	C337.680023,677.912292 326.584717,689.208008 315.279388,700.288208 
	C312.248657,703.258606 312.443420,704.978882 315.481018,707.812622 
	C336.229950,727.169373 359.303406,743.093384 384.713623,755.700500 
	C387.484741,757.075256 389.156525,757.009460 391.616608,754.790833 
	C398.868713,748.250183 410.974884,751.681641 412.428009,761.266541 
	C413.401306,767.686646 416.725922,769.295837 421.728912,770.523743 
	C424.798279,771.277161 427.786194,772.355713 430.833679,773.206055 
	C447.868652,777.959534 465.122253,781.541077 482.804260,782.788208 
	C485.169800,782.955017 487.507782,783.169434 488.601746,780.240356 
	C490.135223,776.134460 493.132050,773.267090 496.968109,771.350098 
	C499.065704,770.301880 499.776245,768.811890 499.766632,766.577454 
	C499.716553,754.911438 499.725800,743.244934 499.768066,731.578796 
	C499.776031,729.379089 499.207031,727.821350 496.974884,726.852051 
	C492.614532,724.958740 489.824188,721.520996 487.977081,716.354553 
M641.287781,863.715454 
	C691.875366,844.034180 736.714172,815.462219 775.617371,777.618347 
	C767.760864,769.562988 760.224304,762.070435 752.986755,754.299377 
	C750.084778,751.183533 748.261475,751.593506 745.349304,754.373169 
	C717.498596,780.955322 685.921997,802.032959 650.775208,817.752563 
	C648.343872,818.840027 645.883667,819.872253 643.393127,820.814514 
	C641.495117,821.532532 639.243042,822.300110 638.267029,819.732666 
	C637.302429,817.194946 639.542236,816.318970 641.338928,815.413025 
	C641.636108,815.263245 641.944397,815.134521 642.251770,815.006226 
	C673.562195,801.932922 701.945312,784.084045 727.873474,762.289429 
	C733.678955,757.409485 739.621277,752.616150 744.321655,747.150085 
	C735.447571,737.994690 726.894104,729.157837 718.322937,720.338257 
	C716.731934,718.701111 715.012024,719.374146 713.255920,720.122742 
	C710.088623,721.472839 706.470825,722.221985 703.519958,720.782410 
	C699.208679,718.679138 696.617188,720.779236 693.825623,723.196045 
	C675.825317,738.780701 655.883972,751.368347 634.405823,761.547668 
	C631.771973,762.795898 630.429199,764.305054 629.760193,767.299988 
	C627.355347,778.065735 617.428955,782.021545 608.332336,775.940186 
	C606.000854,774.381531 603.987427,773.982361 601.379883,774.896790 
	C576.398560,783.657593 550.612244,788.403931 524.236267,790.058716 
	C521.579468,790.225342 519.977356,791.116821 518.872314,793.584961 
	C517.094666,797.555664 514.055969,800.527466 509.852142,801.686523 
	C506.708282,802.553284 506.198822,804.390930 506.225403,807.176819 
	C506.320801,817.172729 506.368225,827.171692 506.215881,837.166138 
	C506.163330,840.614014 507.381927,841.975830 510.847717,841.862610 
	C518.499390,841.612549 526.137878,841.442078 533.792480,840.911072 
	C563.870911,838.824402 593.081970,832.750427 621.592285,823.037964 
	C624.238953,822.136414 628.193176,818.965698 629.650757,823.516174 
	C630.940186,827.541687 626.107117,827.515869 623.579712,828.416382 
	C587.499634,841.272766 550.216187,847.450867 511.982086,848.009644 
	C507.754517,848.071472 506.045227,849.121765 506.184998,853.645325 
	C506.488495,863.466248 506.462463,873.307556 506.206390,883.130981 
	C506.094940,887.406494 507.277649,889.075989 511.808685,888.911743 
	C524.459229,888.453308 537.138977,888.101624 549.677612,886.496399 
	C580.817688,882.510010 611.226379,875.355896 641.287781,863.715454 
M824.504578,720.022461 
	C848.463257,685.143494 866.544067,647.478271 878.188721,606.762695 
	C885.301331,581.893616 889.576660,556.522766 891.715942,530.764832 
	C892.182129,525.151733 892.600769,519.717590 886.094055,516.985962 
	C885.536682,516.751892 884.992310,516.114136 884.760254,515.536133 
	C882.844238,510.763763 878.829651,510.362274 874.492126,510.370270 
	C854.667358,510.406799 834.842285,510.424774 815.017700,510.351471 
	C812.085938,510.340637 809.999695,510.801300 808.845947,514.003113 
	C807.631592,517.373047 805.132568,520.052917 801.717407,521.327637 
	C798.291260,522.606567 797.466431,525.054199 797.345520,528.304688 
	C796.616089,547.905273 792.513550,566.923218 786.854736,585.601379 
	C774.581421,626.112366 753.850830,661.840759 725.260254,693.011780 
	C723.042358,695.429871 721.975769,697.580322 723.098572,700.982178 
	C724.138184,704.131836 724.191833,707.687317 722.626404,710.759094 
	C721.134277,713.687134 721.879395,715.605225 724.082214,717.724243 
	C731.404846,724.768372 738.694336,731.854187 745.772034,739.142090 
	C748.747986,742.206482 750.668335,741.698547 753.453003,738.828796 
	C789.512024,701.667236 816.345154,658.865784 832.849426,609.694519 
	C833.536255,607.648193 834.254211,605.595459 835.184448,603.654419 
	C835.710754,602.556152 836.865051,602.005554 838.157776,602.465271 
	C839.373169,602.897522 840.106934,603.838135 839.976624,605.136292 
	C839.861633,606.282227 839.540344,607.422485 839.191223,608.527710 
	C830.766418,635.196777 818.910034,660.289551 804.077576,683.957581 
	C790.677307,705.340515 775.094849,725.046143 757.269409,742.926697 
	C754.412598,745.792358 754.191040,747.828247 757.324890,750.633667 
	C762.657593,755.407654 767.643188,760.567017 772.864075,765.469177 
	C775.351440,767.804810 777.218750,770.912964 780.845337,772.352722 
	C796.966003,756.410645 811.028870,738.933777 824.504578,720.022461 
M230.601898,427.259460 
	C230.658920,423.572296 235.145599,420.311920 231.331970,416.191376 
	C227.356918,411.896515 225.623947,406.881287 227.852371,401.030365 
	C230.241730,394.756897 234.895752,391.407410 241.435547,390.941223 
	C244.223984,390.742493 245.673340,389.602020 246.577606,387.152374 
	C247.267792,385.282776 248.146378,383.478394 249.008636,381.677307 
	C259.357178,360.061218 272.556519,340.311951 288.191620,322.185364 
	C290.412201,319.610901 291.740692,317.578491 289.630035,313.997162 
	C287.441711,310.284027 287.957367,305.872803 289.525482,301.891937 
	C290.406708,299.654877 289.983337,298.284912 288.326294,296.667786 
	C281.412415,289.920441 274.510040,283.152924 267.849945,276.158081 
	C265.207245,273.382599 263.260620,273.547180 260.911133,276.210205 
	C256.615356,281.079315 252.147720,285.799866 247.933624,290.737579 
	C199.859375,347.066833 172.316284,411.997803 166.442764,485.933380 
	C165.975082,491.820496 166.381104,497.777039 166.381104,504.011047 
	C178.434952,504.011047 189.904831,503.984528 201.374405,504.031097 
	C203.992889,504.041718 205.229492,502.576538 206.111557,500.385437 
	C208.035950,495.605164 211.446991,492.276367 216.472809,491.069611 
	C219.356232,490.377228 219.587723,488.464752 219.637482,486.231903 
	C220.082703,466.249207 224.867081,447.066315 230.601898,427.259460 
M437.027771,834.355469 
	C455.643982,838.237976 474.498260,840.252808 493.434265,841.720032 
	C498.068268,842.079041 500.063477,840.850098 499.827789,835.783325 
	C499.456512,827.801819 499.531067,819.780029 499.850128,811.792603 
	C500.067841,806.341492 499.938538,801.494629 493.770416,799.232483 
	C492.774353,798.867249 491.609741,797.800964 491.329193,796.826660 
	C488.821899,788.118835 481.393036,789.196533 474.910187,788.389221 
	C472.929596,788.142578 470.927246,788.065308 468.949921,787.798645 
	C450.238678,785.275085 432.055878,780.547791 414.170990,774.593628 
	C411.768402,773.793762 409.787384,773.471313 407.237457,775.160889 
	C399.329407,780.400635 389.984985,776.860474 387.514740,767.665833 
	C386.572876,764.160278 384.774078,762.440186 381.695648,760.980103 
	C367.508606,754.251099 354.204681,746.006714 341.379425,736.964050 
	C329.387299,728.508728 318.263550,719.005859 307.227203,708.521606 
	C295.546021,720.257507 284.054047,731.810181 272.552185,743.353027 
	C270.416168,745.496704 271.968323,746.797668 273.517426,748.253479 
	C299.212036,772.400391 327.961304,792.109131 359.588135,807.665588 
	C361.968933,808.836548 363.856873,809.180176 366.490387,807.748413 
	C374.186188,803.564270 381.715393,806.887634 383.935883,815.418518 
	C384.633606,818.099060 385.941467,819.290710 388.299713,820.165955 
	C403.938110,825.970093 419.888916,830.683533 437.027771,834.355469 
M376.667358,191.068710 
	C414.552979,175.827179 453.881348,167.276367 494.704773,165.844482 
	C498.409241,165.714539 499.680267,164.483261 499.636932,160.876129 
	C499.512848,150.547821 499.395386,140.209778 499.725220,129.889954 
	C499.877045,125.140358 498.115662,123.952454 493.653076,124.003242 
	C474.786957,124.217964 456.088745,126.221809 437.597229,129.665054 
	C373.169006,141.662048 315.259125,168.061920 264.087891,209.095566 
	C254.230011,217.000473 244.907593,225.498062 235.728317,234.325180 
	C245.748062,244.067627 255.476501,253.526810 265.595947,263.366180 
	C297.516418,232.869934 334.343231,208.427048 376.667358,191.068710 
M257.622955,271.213226 
	C259.652466,269.455688 259.832672,267.830261 257.726685,265.826355 
	C253.142349,261.464325 248.704590,256.947144 244.243820,252.456726 
	C239.946533,248.130890 235.695679,243.758926 231.124527,239.101715 
	C222.288391,247.805817 214.393555,256.332458 207.012665,265.324799 
	C170.439545,309.882904 144.560486,359.918915 130.071777,415.778687 
	C122.981773,443.113403 119.181725,470.901001 118.288124,499.117798 
	C118.166626,502.954224 119.066284,504.313141 123.234444,504.180145 
	C133.885880,503.840332 144.557465,503.971069 155.217026,504.150024 
	C158.261734,504.201172 159.702774,503.700043 159.865219,500.205444 
	C160.382294,489.080872 161.190170,477.986603 162.503815,466.897766 
	C166.135162,436.244446 174.250671,406.820770 186.204376,378.481323 
	C203.089401,338.450958 226.997757,302.983368 257.622955,271.213226 
M215.635620,688.807495 
	C203.873260,671.148682 193.891327,652.540161 185.458038,633.065063 
	C169.237656,595.607178 161.161819,556.389282 159.892395,515.705444 
	C159.764175,511.595886 158.523636,510.153900 154.386002,510.297699 
	C146.728745,510.563751 139.055466,510.375275 131.388870,510.365601 
	C118.542442,510.349426 118.623962,510.343292 119.047043,523.124695 
	C120.072487,554.104004 125.829720,584.244141 134.939316,613.799866 
	C151.592606,667.830688 179.060287,715.737244 216.747513,757.803406 
	C221.927917,763.585693 227.030197,769.516785 233.397568,774.858276 
	C242.007858,766.199707 250.182770,757.683289 258.718903,749.545715 
	C261.967834,746.448425 261.771210,744.599243 258.694702,741.552917 
	C242.658798,725.674011 228.557648,708.177124 215.635620,688.807495 
M267.763214,750.902466 
	C265.980194,749.812256 265.002136,751.136353 263.957001,752.192200 
	C256.463318,759.762146 249.112808,767.481018 241.425491,774.848633 
	C238.052994,778.080933 238.234360,780.149841 241.630737,783.232117 
	C257.201721,797.362854 273.629425,810.380188 291.074768,822.106079 
	C329.302063,847.800598 370.737549,866.351624 415.407104,877.599304 
	C440.983185,884.039429 466.994202,887.565918 493.337067,888.661194 
	C499.595673,888.921448 499.694794,888.798706 499.719666,882.399719 
	C499.757233,872.739319 499.527313,863.071594 499.847443,853.421448 
	C500.005341,848.662415 498.001404,847.452087 493.688141,847.314636 
	C456.944153,846.144836 421.434601,838.655029 387.011688,825.915649 
	C384.003021,824.802185 382.019440,824.816101 379.492767,827.080322 
	C376.046173,830.169006 371.704681,830.804810 367.366272,828.765259 
	C363.104309,826.761658 360.415283,823.387695 360.745514,818.540344 
	C360.996399,814.857788 358.795715,813.669617 356.139160,812.378662 
	C323.676636,796.603394 294.467010,776.141846 267.763214,750.902466 
M508.456146,517.092346 
	C514.267456,512.860962 515.705383,505.670563 511.725403,500.744293 
	C507.651428,495.701660 500.917419,495.215576 495.941895,499.604950 
	C492.031586,503.054504 491.250000,508.461060 493.980774,513.171143 
	C496.703583,517.867493 501.622925,519.384094 508.456146,517.092346 
M357.963226,659.654297 
	C364.380585,659.706421 368.411163,657.034119 369.640106,651.912354 
	C370.806763,647.050293 368.650085,642.388245 364.255188,640.271973 
	C359.032684,637.757080 352.931030,640.022339 350.501526,645.378174 
	C347.819214,651.291199 350.226593,656.383728 357.963226,659.654297 
M365.210693,371.837646 
	C366.147064,370.492859 367.369354,369.262970 367.964752,367.781189 
	C369.574738,363.774445 369.145813,359.872070 365.974823,356.781616 
	C363.271545,354.147064 360.075256,352.617737 356.068146,354.022003 
	C349.772980,356.228180 346.814514,362.020569 349.196289,367.736847 
	C351.690918,373.723999 357.676910,375.500580 365.210693,371.837646 
M502.766724,289.390564 
	C496.426941,291.142578 492.958771,295.248810 493.402466,300.477600 
	C493.805725,305.229736 497.735229,309.237244 502.450592,309.705353 
	C508.326691,310.288666 513.104309,306.585693 513.785767,300.919861 
	C514.522339,294.795776 510.716766,290.509094 502.766724,289.390564 
M660.976746,660.533875 
	C665.908813,655.698853 666.535034,649.221863 662.464355,645.146973 
	C658.772888,641.451904 652.797546,641.009949 648.833740,644.138855 
	C644.894653,647.248291 643.855652,653.188171 646.469727,657.654480 
	C649.170776,662.269409 654.476379,663.523193 660.976746,660.533875 
M230.634872,502.925262 
	C227.041519,497.003296 222.248520,495.169373 216.990921,497.704712 
	C211.957352,500.131958 209.779663,505.496826 211.719269,510.691742 
	C213.569473,515.647278 219.209625,518.215027 224.459473,516.491882 
	C229.537094,514.825256 232.139847,509.588745 230.634872,502.925262 
M707.421936,694.444519 
	C706.292786,694.666626 705.098877,694.724121 704.045349,695.138550 
	C698.808105,697.198364 696.308960,701.772949 697.428833,707.052124 
	C698.479065,712.002808 702.311401,714.979553 707.495605,714.871277 
	C712.589966,714.764832 716.406494,711.377930 717.397827,706.083618 
	C718.364197,700.922668 714.963440,696.661133 707.421936,694.444519 
M306.774414,297.777924 
	C298.813110,297.222626 292.954071,303.223541 294.779633,310.063049 
	C296.094696,314.989807 300.027710,317.969269 304.994781,317.801514 
	C309.725525,317.641785 313.716827,314.381439 314.630493,309.930450 
	C315.749603,304.478577 313.359863,300.474792 306.774414,297.777924 
M502.031097,701.500122 
	C501.102264,701.852478 500.127563,702.116638 499.252350,702.572021 
	C494.962952,704.804199 492.854858,709.636780 494.064911,714.334534 
	C495.292877,719.101807 499.371521,721.998718 504.462433,721.719666 
	C509.964783,721.417969 513.947083,717.138367 513.921692,711.554199 
	C513.895142,705.707275 509.853516,702.018982 502.031097,701.500122 
M494.866943,228.459412 
	C499.699341,233.695190 505.631287,234.390594 510.146027,230.250565 
	C514.496216,226.261398 514.760803,220.413910 510.791016,215.995468 
	C507.593536,212.436661 502.352020,211.717468 498.046875,214.246765 
	C493.591309,216.864487 492.286560,221.824371 494.866943,228.459412 
M655.391479,355.115417 
	C650.897461,354.925781 647.565369,356.883423 645.880920,360.980621 
	C644.418396,364.538086 644.569397,368.272186 647.157410,371.351868 
	C650.019409,374.757477 653.558777,376.601807 658.186646,374.850769 
	C662.899414,373.067596 665.209595,369.562927 664.942322,364.415375 
	C664.679626,359.356934 662.102783,356.636566 655.391479,355.115417 
M291.532196,503.428925 
	C291.391510,504.409332 291.146698,505.387634 291.127228,506.370453 
	C291.013062,512.127563 294.220001,516.092896 299.531372,516.839966 
	C305.094177,517.622437 309.546906,514.560486 310.973694,508.971649 
	C312.155518,504.342285 309.791321,499.744690 305.165131,497.675964 
	C299.964355,495.350311 295.707581,496.960144 291.532196,503.428925 
M512.719421,781.060425 
	C508.732086,776.432617 504.414825,775.005981 500.077148,776.882751 
	C495.717163,778.769165 493.594513,782.694214 494.142029,787.857727 
	C494.614349,792.311890 497.785889,795.477966 502.622955,796.323914 
	C510.337891,797.673279 515.500732,790.486694 512.719421,781.060425 
M801.566589,500.080750 
	C796.512756,495.932922 792.440369,495.525299 788.103882,498.733307 
	C784.280457,501.561798 782.928833,506.862793 784.921265,511.215515 
	C786.832275,515.390320 791.324463,517.613220 796.061279,516.728027 
	C803.205811,515.392883 805.899414,508.171173 801.566589,500.080750 
M702.272888,503.733765 
	C700.678589,508.464447 702.206299,512.332825 706.039429,515.092163 
	C709.557251,517.624573 713.485046,517.755066 717.197632,515.220764 
	C721.018372,512.612610 722.577332,508.893829 721.604736,504.409515 
	C720.604797,499.799377 717.188171,497.213959 712.796875,496.803253 
	C708.174805,496.370941 704.456421,498.528839 702.272888,503.733765 
z"/>
<path fill="#000000" opacity="1.000000" stroke="none" 
	d="
M836.613770,199.636810 
	C845.582520,196.744705 849.383301,189.956421 851.549194,181.899780 
	C852.737549,177.479065 853.663269,172.987732 854.937073,167.547180 
	C857.610779,172.002838 858.098694,175.962860 858.754761,179.729385 
	C860.902405,192.057709 868.165100,199.047409 880.197998,201.663300 
	C883.983215,202.486176 887.968201,202.739792 891.476379,204.463654 
	C891.329834,205.830215 890.522522,206.057526 889.702698,206.235748 
	C888.241943,206.553268 886.787537,206.941711 885.308838,207.128998 
	C869.454407,209.136749 859.848816,217.487518 857.898254,233.816406 
	C857.625488,236.099640 856.730103,238.311295 856.073853,240.541626 
	C856.007263,240.767914 855.600159,240.893982 855.346985,241.060638 
	C853.805176,238.359940 822.006897,206.301880 818.990051,204.671036 
	C824.837646,202.326202 830.923767,202.257935 836.613770,199.636810 
z"/>
<path fill="#000000" opacity="1.000000" stroke="none" 
	d="
M807.008057,276.033508 
	C809.380859,288.379211 818.262634,292.464508 828.759277,294.755737 
	C831.589722,295.373566 834.679932,295.235291 838.167236,297.565704 
	C829.197876,300.786438 819.533203,300.434723 812.935913,306.897125 
	C806.278992,313.417908 806.506165,322.967896 803.845032,331.130798 
	C801.836304,331.146820 801.948425,329.782654 801.684326,328.713562 
	C801.405273,327.583984 801.124329,326.454620 800.866211,325.320129 
	C796.495056,306.110626 792.440002,302.338745 772.747681,299.153931 
	C771.324524,298.923767 769.732666,299.036133 768.467896,296.927856 
	C777.144409,294.367004 786.749329,294.068604 793.303528,287.579132 
	C799.882690,281.065002 799.779663,271.310181 802.899231,262.083038 
	C805.661255,266.938660 805.345276,271.577881 807.008057,276.033508 
z"/>
<path fill="#000000" opacity="1.000000" stroke="none" 
	d="
M731.882751,149.209961 
	C728.283936,141.941940 721.305420,141.273956 714.990112,139.456009 
	C713.286194,138.965515 711.301880,139.388840 709.338867,137.317673 
	C715.918152,134.347046 723.703674,134.873978 728.942993,129.862213 
	C734.368835,124.671951 734.240479,116.909866 737.151917,109.284058 
	C740.795044,116.436256 740.153198,124.282997 745.222778,129.561996 
	C750.446655,135.001709 758.364868,134.285065 765.060669,137.304871 
	C759.911499,140.106903 740.152161,159.836243 737.122070,165.287888 
	C735.319458,159.711548 733.677124,154.631012 731.882751,149.209961 
z"/>
<path fill="#000000" opacity="1.000000" stroke="none" 
	d="
M917.815063,297.898376 
	C922.981506,295.244415 924.125916,290.431122 925.638489,285.850342 
	C926.651306,282.782928 926.748962,279.408722 928.948120,275.679688 
	C931.653259,282.834045 931.424988,290.374603 936.435608,295.592834 
	C941.535400,300.903931 949.285461,300.323334 956.325562,303.460663 
	C949.334595,306.777008 941.624390,306.235321 936.412842,311.414703 
	C931.218567,316.576813 931.925842,324.257141 929.065002,330.801697 
	C927.245056,328.160309 903.356445,304.435303 901.148926,303.268463 
	C906.854065,301.113342 912.606079,300.801208 917.815063,297.898376 
z"/>
<path fill="#000000" opacity="1.000000" stroke="none" 
	d="
M542.401062,126.727570 
	C538.169434,126.194550 534.376160,125.711624 530.571228,125.351227 
	C528.368103,125.142548 526.391968,124.614143 526.741638,121.913025 
	C527.080505,119.295883 529.154724,119.165474 531.322266,119.330681 
	C551.789368,120.890724 571.929810,124.361092 591.825012,129.392578 
	C601.835815,131.924316 611.734497,134.806885 621.504272,138.129944 
	C623.586426,138.838150 626.641541,139.294312 625.528503,142.604446 
	C624.504944,145.648560 621.936279,144.871201 619.634583,144.081131 
	C594.667908,135.511169 569.003113,130.048752 542.401062,126.727570 
z"/>
<path fill="#000000" opacity="1.000000" stroke="none" 
	d="
M587.946167,182.198410 
	C568.379639,177.086624 548.895813,174.016663 529.154663,172.471985 
	C526.970276,172.301056 523.752747,172.731918 523.991943,169.328506 
	C524.252502,165.621872 527.630737,166.584396 529.914001,166.701782 
	C552.411987,167.858597 574.369995,172.230209 596.064026,178.084518 
	C599.911804,179.122849 603.721008,180.310074 607.525391,181.500763 
	C609.508789,182.121552 611.580383,183.050552 610.661377,185.631744 
	C609.804077,188.039536 607.645874,187.830338 605.588257,187.238052 
	C599.842346,185.584106 594.096619,183.929596 587.946167,182.198410 
z"/>
<path fill="#000000" opacity="1.000000" stroke="none" 
	d="
M533.799072,219.996948 
	C554.151428,222.107010 573.709106,225.858459 592.868225,231.618027 
	C594.138367,231.999847 595.427673,232.389816 596.609375,232.975189 
	C597.943665,233.636185 598.488708,234.850281 598.070251,236.323334 
	C597.649902,237.803146 596.530823,238.527817 595.056152,238.376297 
	C593.748840,238.241974 592.452393,237.881470 591.183838,237.509155 
	C570.536621,231.449295 549.518982,227.475311 528.016663,226.168152 
	C525.523682,226.016602 522.451904,225.894104 522.780701,222.365204 
	C523.087036,219.076904 526.117737,219.801773 528.349243,219.750397 
	C530.008301,219.712173 531.672302,219.887695 533.799072,219.996948 
z"/>
<path fill="#000000" opacity="1.000000" stroke="none" 
	d="
M649.788086,256.114258 
	C656.346680,260.131073 662.594360,263.951874 668.814087,267.817596 
	C670.725525,269.005585 672.689270,270.429077 670.925232,272.971527 
	C669.368713,275.214783 667.412964,274.130005 665.673645,272.985748 
	C648.227417,261.508514 629.811829,251.906357 610.362854,244.285583 
	C608.492065,243.552551 606.266052,242.564743 607.251831,240.034058 
	C608.339539,237.241821 610.802612,238.098465 612.821228,238.896942 
	C625.367371,243.859589 637.707458,249.275574 649.788086,256.114258 
z"/>
<path fill="#000000" opacity="1.000000" stroke="none" 
	d="
M646.049072,196.856842 
	C651.451111,199.499283 656.506775,201.998322 661.568237,204.485397 
	C663.556885,205.462524 665.091187,206.845367 663.763123,209.138062 
	C662.577759,211.184402 660.620361,210.523727 658.923096,209.650269 
	C646.965393,203.496445 634.692993,198.050278 622.179932,193.128769 
	C620.340576,192.405289 618.135193,191.378052 619.322021,188.814224 
	C620.463989,186.347473 622.764038,187.232635 624.566040,187.955963 
	C631.643188,190.796722 638.663513,193.778961 646.049072,196.856842 
z"/>
<path fill="#000000" opacity="1.000000" stroke="none" 
	d="
M778.559692,416.388031 
	C775.095093,407.136566 771.708069,398.276306 768.396179,389.388031 
	C767.696167,387.509369 765.860413,385.081238 769.048218,383.950409 
	C771.797791,382.975067 772.688904,385.443634 773.569214,387.470276 
	C778.216370,398.169037 782.102295,409.147156 785.626160,420.258484 
	C786.310425,422.416382 786.929871,424.869080 784.079102,425.663422 
	C781.417664,426.405029 780.941650,423.873627 780.305237,422.011292 
	C779.713379,420.279266 779.207703,418.517761 778.559692,416.388031 
z"/>
<path fill="#000000" opacity="1.000000" stroke="none" 
	d="
M794.415649,459.734833 
	C795.206726,465.591278 796.004822,471.007355 796.642822,476.442200 
	C796.863831,478.324615 796.524536,480.444855 794.256104,480.748688 
	C791.796936,481.078003 791.339111,478.903625 791.162842,477.071350 
	C790.256104,467.647278 789.063477,458.271057 787.083984,449.002289 
	C786.711121,447.256317 787.036804,445.475067 789.094543,445.057953 
	C791.283325,444.614380 791.925964,446.363342 792.264648,448.054810 
	C793.013306,451.793762 793.667175,455.551666 794.415649,459.734833 
z"/>
<path fill="#000000" opacity="1.000000" stroke="none" 
	d="
M603.531616,322.071503 
	C611.691467,325.928925 618.932922,330.580078 625.914612,335.631714 
	C627.512085,336.787567 630.195068,338.063904 628.169250,340.660370 
	C626.438232,342.879120 624.584656,341.074524 623.003906,339.952515 
	C616.379944,335.250793 609.454346,331.037628 602.399109,327.023376 
	C601.120117,326.295624 599.664368,325.407196 600.058167,323.600800 
	C600.401001,322.027954 601.682373,321.663177 603.531616,322.071503 
z"/>
<path fill="#000000" opacity="1.000000" stroke="none" 
	d="
M702.047241,446.550720 
	C704.163879,443.355042 706.077698,444.475800 706.870239,446.887268 
	C709.826904,455.883636 711.494263,465.201996 713.041321,474.528351 
	C713.299866,476.087036 712.816223,477.731628 710.940002,477.894592 
	C708.795593,478.080872 708.142212,476.272949 707.918640,474.617340 
	C706.650208,465.225922 703.866760,456.166473 702.047241,446.550720 
z"/>
<path fill="#000000" opacity="1.000000" stroke="none" 
	d="
M563.067200,310.003784 
	C561.320740,306.122650 563.472534,305.558014 566.138245,306.253510 
	C574.160339,308.346588 581.847961,311.420563 589.393188,314.833527 
	C590.895630,315.513123 592.644775,316.478394 591.654907,318.538361 
	C590.619385,320.693115 588.715027,320.165741 586.913025,319.458740 
	C579.065857,316.380096 571.212158,313.317963 563.067200,310.003784 
z"/>
<path fill="#000000" opacity="1.000000" stroke="none" 
	d="
M689.437378,416.466858 
	C688.239197,414.036072 687.165955,411.964447 686.210815,409.839752 
	C685.633545,408.555695 685.484436,407.161865 686.911072,406.305145 
	C688.365967,405.431427 689.543640,406.188141 690.254822,407.448486 
	C694.761963,415.436462 698.743835,423.673340 701.754456,432.353973 
	C702.258057,433.806000 701.891724,435.107727 700.468628,435.711700 
	C698.609314,436.500854 697.672180,435.113281 697.045166,433.716309 
	C694.523804,428.098419 692.082825,422.444366 689.437378,416.466858 
z"/>
<path fill="#000000" opacity="1.000000" stroke="none" 
	d="
M308.525543,571.382324 
	C308.150879,570.051331 307.826324,569.107178 307.629120,568.137085 
	C307.290741,566.472961 306.951477,564.604492 309.195099,564.110046 
	C311.084991,563.693604 311.692596,565.337463 312.227448,566.746948 
	C315.282501,574.797607 318.316956,582.856018 321.361145,590.910767 
	C321.968384,592.517517 322.636444,594.293091 320.447845,595.096924 
	C318.285797,595.890991 317.592804,593.988892 316.885132,592.521667 
	C313.642242,585.797607 310.970245,578.843201 308.525543,571.382324 
z"/>
<path fill="#000000" opacity="1.000000" stroke="none" 
	d="
M343.751221,629.670227 
	C341.953064,632.756653 340.364075,631.466980 339.045837,629.711914 
	C333.759003,622.673218 328.937164,615.322937 324.701385,607.601196 
	C323.897491,606.135681 323.106812,604.471863 325.030579,603.223633 
	C326.251740,602.431274 327.373047,603.113708 328.020264,604.135742 
	C333.324982,612.512390 338.567230,620.928589 343.751221,629.670227 
z"/>
<path fill="#000000" opacity="1.000000" stroke="none" 
	d="
M304.393005,529.823669 
	C305.712708,537.238220 306.900452,544.250305 308.062988,551.266602 
	C308.321960,552.829712 308.240112,554.470764 306.418396,554.921204 
	C304.540558,555.385437 303.720673,553.885620 303.368713,552.378906 
	C301.748352,545.442505 300.257538,538.455261 299.869049,531.339966 
	C299.691071,528.080200 301.084351,526.162048 304.393005,529.823669 
z"/>
<path fill="#000000" opacity="1.000000" stroke="none" 
	d="
M403.506104,326.430511 
	C405.995270,325.033081 408.152771,323.791962 410.352386,322.630554 
	C411.968872,321.777100 413.692169,321.499786 414.584320,323.506104 
	C415.520721,325.611877 413.663696,326.525635 412.289337,327.295227 
	C404.897705,331.434143 397.758423,335.959351 390.880859,340.901886 
	C389.130371,342.159851 387.395477,343.440399 385.624023,344.668152 
	C384.219788,345.641418 382.627075,346.673157 381.302124,344.779205 
	C380.089081,343.045166 381.161438,341.637970 382.588837,340.547791 
	C389.187408,335.508148 396.005768,330.791565 403.506104,326.430511 
z"/>
<path fill="#000000" opacity="1.000000" stroke="none" 
	d="
M428.777496,313.601074 
	C436.295685,310.889221 443.451294,308.280426 450.647125,305.787750 
	C452.507233,305.143463 454.892212,304.403046 455.638367,307.107330 
	C456.298737,309.500671 454.002075,309.943787 452.302765,310.566742 
	C444.531586,313.415588 436.762299,316.269623 428.995300,319.129822 
	C427.165955,319.803436 425.066223,321.181824 423.901276,318.497711 
	C422.889557,316.166687 424.968811,315.378967 426.624115,314.578918 
	C427.220673,314.290619 427.827667,314.023926 428.777496,313.601074 
z"/>
<path fill="#000000" opacity="1.000000" stroke="none" 
	d="
M689.715393,609.560425 
	C685.820190,616.177429 682.079651,622.452881 677.658752,628.284058 
	C676.514771,629.792908 675.385742,632.237549 673.022095,630.398193 
	C670.826050,628.689209 672.520813,626.783508 673.664734,625.195190 
	C678.327820,618.719910 682.397461,611.875549 686.443665,605.010437 
	C687.467346,603.273621 688.361023,600.290527 691.045654,601.788879 
	C693.664429,603.250549 691.561218,605.578674 690.833801,607.478943 
	C690.598267,608.094360 690.221863,608.655884 689.715393,609.560425 
z"/>
<path fill="#000000" opacity="1.000000" stroke="none" 
	d="
M704.443665,577.356445 
	C702.546692,582.181824 700.820801,586.655762 698.955627,591.070862 
	C698.291199,592.643738 697.203613,594.146851 695.159485,593.108948 
	C693.446350,592.239258 693.806885,590.703003 694.391602,589.216248 
	C697.539429,581.213074 700.721313,573.224121 703.138184,564.953735 
	C703.593323,563.396118 704.339661,561.459839 706.468384,562.050293 
	C708.866516,562.715332 708.443542,564.841919 707.921997,566.602905 
	C706.889771,570.088684 705.690247,573.524963 704.443665,577.356445 
z"/>
<path fill="#000000" opacity="1.000000" stroke="none" 
	d="
M611.385071,681.344482 
	C615.728699,678.551208 619.757385,675.941467 623.815674,673.378540 
	C625.324707,672.425659 627.065002,670.910828 628.606140,672.936157 
	C630.100342,674.899841 628.490845,676.312805 626.966797,677.418457 
	C620.123779,682.383118 612.964661,686.848206 605.462830,690.747620 
	C603.820129,691.601440 601.862549,692.405518 600.759583,690.125549 
	C599.792480,688.126221 601.473633,687.165894 602.936829,686.307129 
	C605.648865,684.715271 608.366577,683.132935 611.385071,681.344482 
z"/>
<path fill="#000000" opacity="1.000000" stroke="none" 
	d="
M569.533752,700.416382 
	C575.642883,698.114685 581.385620,695.934998 587.143066,693.794617 
	C588.958374,693.119812 591.201599,691.739319 592.336365,694.328918 
	C593.566284,697.135742 590.955627,698.029907 589.039917,698.894226 
	C582.063171,702.042236 574.770264,704.316040 567.454529,706.518494 
	C565.630920,707.067566 563.597473,707.673706 562.819275,705.322632 
	C562.028320,702.933228 564.088806,702.256409 565.862366,701.648071 
	C566.961731,701.270874 568.069214,700.917542 569.533752,700.416382 
z"/>
<path fill="#000000" opacity="1.000000" stroke="none" 
	d="
M328.827026,409.521057 
	C325.013977,417.714691 321.339294,425.551147 317.641571,433.376740 
	C316.879822,434.988800 316.279114,437.336823 313.928040,436.516205 
	C311.161957,435.550751 312.422363,433.279266 313.098236,431.445648 
	C315.983887,423.616852 319.684143,416.161560 323.600983,408.810547 
	C324.383331,407.342255 325.214142,405.663422 327.278931,406.050385 
	C328.887451,406.351837 329.216064,407.677124 328.827026,409.521057 
z"/>
<path fill="#000000" opacity="1.000000" stroke="none" 
	d="
M304.653076,477.645233 
	C301.065369,478.151031 300.705750,476.108551 301.163452,473.711060 
	C302.784515,465.219391 304.292389,456.692871 307.124847,448.491486 
	C307.687042,446.863678 308.114746,444.401367 310.607330,445.214203 
	C312.919434,445.968170 312.191467,448.116394 311.744507,449.926178 
	C309.481506,459.088104 307.241272,468.255676 304.653076,477.645233 
z"/>
<path fill="#000000" opacity="1.000000" stroke="none" 
	d="
M449.541443,706.613037 
	C444.130432,704.777100 439.088043,703.106628 434.072754,701.358459 
	C432.494049,700.808105 430.601593,700.046692 431.258118,697.956421 
	C432.009369,695.564453 434.102875,696.156250 435.880402,696.709961 
	C443.328796,699.030090 450.766083,701.386047 458.203308,703.741882 
	C459.870483,704.269897 461.595795,705.045593 460.875854,707.161316 
	C460.204254,709.135010 458.381256,709.014709 456.656006,708.549255 
	C454.412201,707.943970 452.165802,707.348328 449.541443,706.613037 
z"/>
<path fill="#000000" opacity="1.000000" stroke="none" 
	d="
M419.340027,689.614868 
	C421.173004,690.895386 423.923828,691.555603 422.565277,694.107056 
	C421.286713,696.508179 419.052063,695.234741 417.324890,694.284851 
	C410.781769,690.686462 404.256714,687.052673 397.793182,683.314026 
	C396.159424,682.368958 393.761383,681.200867 395.402039,678.779053 
	C396.838165,676.659119 398.676392,678.374207 400.211182,679.203430 
	C406.489410,682.595398 412.745056,686.029297 419.340027,689.614868 
z"/>
<path fill="#000000" opacity="1.000000" stroke="none" 
	d="
M839.032837,589.221313 
	C840.499939,583.036560 841.848328,577.248535 843.271729,571.479004 
	C843.740845,569.577454 844.108398,567.160522 846.897156,567.804138 
	C849.666565,568.443298 848.993774,570.660645 848.515259,572.645203 
	C847.083862,578.581909 845.714172,584.533691 844.240356,590.459778 
	C843.840088,592.069519 843.189819,593.960693 841.168640,593.788513 
	C838.717468,593.579529 838.714844,591.545105 839.032837,589.221313 
z"/>
</svg>